<svg xmlns="http://www.w3.org/2000/svg" width="1200" height="800" viewBox="0 0 1200 800" fill="none">
  <defs>
    <linearGradient id="bg" x1="80" y1="40" x2="1120" y2="760" gradientUnits="userSpaceOnUse">
      <stop stop-color="#081726"/>
      <stop offset="1" stop-color="#102B42"/>
    </linearGradient>
    <linearGradient id="card" x1="380" y1="170" x2="855" y2="610" gradientUnits="userSpaceOnUse">
      <stop stop-color="#1F5C8B"/>
      <stop offset="1" stop-color="#0D243B"/>
    </linearGradient>
    <linearGradient id="line" x1="350" y1="250" x2="820" y2="250" gradientUnits="userSpaceOnUse">
      <stop stop-color="#0FF8C8" stop-opacity="0"/>
      <stop offset="0.5" stop-color="#8FFFEA"/>
      <stop offset="1" stop-color="#0FF8C8" stop-opacity="0"/>
    </linearGradient>
    <linearGradient id="chip" x1="560" y1="305" x2="655" y2="400" gradientUnits="userSpaceOnUse">
      <stop stop-color="#88FFF0"/>
      <stop offset="1" stop-color="#1ECFAF"/>
    </linearGradient>
  </defs>

  <rect width="1200" height="800" rx="36" fill="url(#bg)"/>
  <circle cx="1040" cy="120" r="190" fill="#35E6CB" fill-opacity="0.16"/>
  <circle cx="120" cy="710" r="220" fill="#57B7FF" fill-opacity="0.15"/>

  <g transform="translate(330 130)">
    <rect x="20" y="30" width="500" height="500" rx="40" fill="#06101A" stroke="#4DDAC8" stroke-opacity="0.45" stroke-width="4"/>
    <rect x="36" y="48" width="468" height="464" rx="28" fill="url(#card)"/>

    <rect x="80" y="120" width="380" height="2" fill="url(#line)"/>
    <rect x="80" y="420" width="380" height="2" fill="url(#line)"/>

    <rect x="190" y="180" width="160" height="160" rx="22" fill="#0B2338" stroke="#75FFE9" stroke-opacity="0.6"/>
    <rect x="214" y="204" width="112" height="112" rx="16" fill="url(#chip)"/>

    <g fill="#82FFF0" fill-opacity="0.75">
      <rect x="135" y="202" width="36" height="8" rx="4"/>
      <rect x="135" y="224" width="36" height="8" rx="4"/>
      <rect x="135" y="246" width="36" height="8" rx="4"/>
      <rect x="369" y="202" width="36" height="8" rx="4"/>
      <rect x="369" y="224" width="36" height="8" rx="4"/>
      <rect x="369" y="246" width="36" height="8" rx="4"/>
      <rect x="250" y="126" width="8" height="36" rx="4"/>
      <rect x="272" y="126" width="8" height="36" rx="4"/>
      <rect x="294" y="126" width="8" height="36" rx="4"/>
      <rect x="250" y="358" width="8" height="36" rx="4"/>
      <rect x="272" y="358" width="8" height="36" rx="4"/>
      <rect x="294" y="358" width="8" height="36" rx="4"/>
    </g>

    <rect x="90" y="364" width="120" height="72" rx="12" fill="#0E2A42" stroke="#73FFE8" stroke-opacity="0.35"/>
    <rect x="330" y="364" width="140" height="72" rx="12" fill="#0E2A42" stroke="#73FFE8" stroke-opacity="0.35"/>
  </g>

  <text x="600" y="730" text-anchor="middle" fill="#A5FFF0" fill-opacity="0.85" font-family="'Segoe UI', Tahoma, sans-serif" font-size="44" font-weight="700" letter-spacing="1.2">
    PC COMPONENT PLACEHOLDER
  </text>
</svg>
